<svg xmlns="http://www.w3.org/2000/svg" viewBox="0 0 1200 675" role="img" aria-label="Datos y BI">
  <defs>
    <linearGradient id="bg" x1="0" y1="0" x2="1" y2="1"><stop offset="0" stop-color="#7c2d12"/><stop offset="1" stop-color="#22c55e"/></linearGradient>
    <linearGradient id="panel" x1="0" y1="0" x2="1" y2="1"><stop offset="0" stop-color="#ffffff" stop-opacity="0.92"/><stop offset="1" stop-color="#ffffff" stop-opacity="0.62"/></linearGradient>
  </defs>
  <rect width="1200" height="675" fill="url(#bg)"/>
  <circle cx="1020" cy="80" r="180" fill="#fff" opacity="0.13"/>
  <circle cx="120" cy="590" r="220" fill="#03121f" opacity="0.18"/>
  <g transform="translate(120 105)">
    <rect x="0" y="0" width="680" height="410" rx="28" fill="#0f172a" opacity="0.78"/>
    <rect x="34" y="38" width="612" height="312" rx="18" fill="url(#panel)"/>
    <rect x="74" y="78" width="210" height="22" rx="11" fill="#7c2d12" opacity="0.86"/>
    <rect x="74" y="126" width="500" height="16" rx="8" fill="#334155" opacity="0.32"/>
    <rect x="74" y="168" width="438" height="16" rx="8" fill="#334155" opacity="0.25"/>
    <rect x="74" y="236" width="130" height="72" rx="16" fill="#22c55e" opacity="0.88"/>
    <rect x="232" y="236" width="130" height="72" rx="16" fill="#7c2d12" opacity="0.72"/>
    <rect x="390" y="236" width="130" height="72" rx="16" fill="#0f172a" opacity="0.20"/>
    <rect x="224" y="382" width="232" height="18" rx="9" fill="#0f172a" opacity="0.46"/>
  </g>
  <g transform="translate(820 170)">
    <rect width="250" height="250" rx="44" fill="#fff" opacity="0.90"/>
    <text x="125" y="148" text-anchor="middle" font-family="Inter,Arial,sans-serif" font-size="74" font-weight="900" fill="#7c2d12">BI</text>
  </g>
  <text x="120" y="598" font-family="Inter,Arial,sans-serif" font-size="54" font-weight="900" fill="#fff">Datos y BI</text>
</svg>
